<?xml version="1.0" standalone="no"?>
<!DOCTYPE svg PUBLIC "-//W3C//DTD SVG 20010904//EN"
 "http://www.w3.org/TR/2001/REC-SVG-20010904/DTD/svg10.dtd">
<svg version="1.0" xmlns="http://www.w3.org/2000/svg"
 width="180.000000pt" height="180.000000pt" viewBox="0 0 180.000000 180.000000"
 preserveAspectRatio="xMidYMid meet">
<metadata>
Created by potrace 1.11, written by Peter Selinger 2001-2013
</metadata>
<g transform="translate(0.000000,180.000000) scale(0.100000,-0.100000)"
fill="#000000" stroke="none">
<path d="M941 1346 c2 -2 51 -13 109 -26 212 -45 372 -111 435 -182 75 -83 22
-153 -140 -184 l-70 -14 130 4 c198 6 315 53 315 127 0 76 -165 180 -356 225
-120 27 -440 66 -423 50z"/>
<path d="M371 1074 c-11 -31 -21 -60 -21 -65 0 -5 103 -10 228 -11 l229 -3
-83 -230 c-46 -126 -83 -236 -83 -242 -1 -10 23 -13 87 -13 l87 0 40 113 40
112 70 6 c98 9 148 27 196 68 76 64 111 189 74 260 -29 58 -56 61 -469 61
l-373 0 -22 -56z m687 -13 c-2 -65 20 -98 69 -107 59 -10 60 -16 5 -30 -29 -8
-64 -21 -78 -30 -24 -16 -75 -83 -87 -114 -3 -8 -6 11 -6 43 -1 72 -27 101
-104 115 -29 5 -40 10 -26 11 63 3 127 31 167 75 22 23 43 53 47 65 10 33 14
25 13 -28z"/>
<path d="M295 860 c-3 -5 -26 -65 -50 -132 -24 -68 -50 -143 -59 -167 -9 -24
-16 -45 -16 -47 0 -2 40 -4 89 -4 l90 0 19 53 c10 28 29 80 41 114 l23 62 91
3 90 3 23 63 24 62 -180 0 c-107 0 -181 -4 -185 -10z"/>
<path d="M1270 846 c-13 -35 -69 -191 -96 -269 l-23 -68 91 3 91 3 18 50 c9
28 37 107 63 178 l45 127 -90 0 c-85 0 -90 -1 -99 -24z"/>
</g>
</svg>
